<?xml version="1.0" encoding="UTF-8"?>
<svg width="10px" height="13px" viewBox="0 0 10 13" version="1.1" xmlns="http://www.w3.org/2000/svg" xmlns:xlink="http://www.w3.org/1999/xlink">
    <!-- Generator: Sketch 50.2 (55047) - http://www.bohemiancoding.com/sketch -->
    <title>icon_pent</title>
    <desc>Created with Sketch.</desc>
    <defs></defs>
    <g id="Design" stroke="none" stroke-width="1" fill="none" fill-rule="evenodd" opacity="0.720926339">
        <g id="Desktop_o-kopanii_1" transform="translate(-121.000000, -821.000000)" fill="#FFFFFF" fill-rule="nonzero">
            <g id="соцсети" transform="translate(86.000000, 819.000000)">
                <g id="icon_pent" transform="translate(35.000000, 2.000000)">
                    <path d="M4.06945721,8.56629154 C3.74818427,10.4046585 3.31982036,12.1348862 2.14181958,13 C1.71345567,10.2965192 2.67727448,8.24187384 3.1056384,6.07908923 C2.35600154,4.88955769 3.21272938,2.29421615 4.71200309,2.94305153 C6.63964071,3.70002615 3.1056384,7.59303846 5.46163994,8.13373461 C8.03182344,8.56629154 8.99564226,3.70002615 7.49636855,2.18607692 C5.24745798,-0.0848469321 0.963818813,2.18607692 1.49927371,5.43025384 C1.60636469,6.18722846 2.46309252,6.51164615 1.82054665,7.59303846 C0.428363917,7.16048153 0,6.07908923 0,4.56513999 C0.107090979,2.07793768 2.24891056,0.347709991 4.39073015,0.0232922987 C7.06800463,-0.192986163 9.63818813,1.10468461 9.95946107,3.59188692 C10.280734,6.51164615 8.67436932,9.64768384 5.78291288,9.43140538 C5.03327602,9.32326615 4.71200309,8.99884846 4.06945721,8.56629154 Z" id="Shape"></path>
                </g>
            </g>
        </g>
    </g>
</svg>