<?xml version="1.0" encoding="UTF-8"?>
<svg width="152px" height="100px" viewBox="0 0 152 100" version="1.1" xmlns="http://www.w3.org/2000/svg" xmlns:xlink="http://www.w3.org/1999/xlink">
    <!-- Generator: Sketch 50.2 (55047) - http://www.bohemiancoding.com/sketch -->
    <title>logo</title>
    <desc>Created with Sketch.</desc>
    <defs>
        <polygon id="path-1" points="0.2548375 0.0472378378 18.5470875 0.0472378378 18.5470875 36 0.2548375 36"></polygon>
        <polygon id="path-3" points="0.460007407 0.342 25.6857852 0.342 25.6857852 18.5696256 0.460007407 18.5696256"></polygon>
        <polygon id="path-5" points="0 60 117 60 117 0 0 0"></polygon>
        <polygon id="path-7" points="0.18635 0.361904762 5.73985 0.361904762 5.73985 9.82566667 0.18635 9.82566667"></polygon>
        <polygon id="path-9" points="0 11 0 1 95 1 95 11"></polygon>
        <polygon id="path-11" points="0 0.0155413966 21.9871741 0.0155413966 21.9871741 20 0 20"></polygon>
        <polygon id="path-13" points="0.263206276 0.125649481 21.7390698 0.125649481 21.7390698 19.5979326 0.263206276 19.5979326"></polygon>
    </defs>
    <g id="Design" stroke="none" stroke-width="1" fill="none" fill-rule="evenodd">
        <g id="Desktop_o-kopanii_1" transform="translate(-54.000000, -51.000000)">
            <g id="logo" transform="translate(54.000000, 51.000000)">
                <g transform="translate(26.000000, 39.000000)">
                    <path d="M7.14092321,30.1694116 C7.00610586,30.6024221 6.85370364,31.0087402 6.67883186,31.3878716 C6.50542549,31.7670029 6.4179896,32.1866673 6.4179896,32.6453816 C6.4179896,32.7007437 6.42531663,32.7684634 6.43899375,32.849035 C6.45218241,32.9301009 6.45804403,32.9978206 6.45804403,33.0516997 C6.45804403,33.2691936 6.37793517,33.5326578 6.21820592,33.8430809 C6.05798821,34.1549869 5.97690241,34.5682252 5.97690241,35.0813131 C5.95003664,35.1618846 5.87774327,35.2849664 5.75611458,35.4466039 C5.63595129,35.6087357 5.50846097,35.7990428 5.37510903,36.0145595 C5.24224556,36.2320534 5.12061687,36.4614106 5.0141307,36.7046083 C4.90764453,36.9483003 4.85391298,37.191498 4.85391298,37.4356843 C4.85391298,37.5434426 4.86759011,37.6378547 4.89396741,37.7189206 C4.92083319,37.8014694 4.93402184,37.8958815 4.93402184,38.0036399 C4.93402184,38.1118925 4.92083319,38.193947 4.89396741,38.2483205 C4.68050661,38.7080235 4.47925753,39.282405 4.2926625,39.9719595 C4.10460207,40.6629968 3.89114127,41.3327791 3.65130316,41.9818006 C3.40999965,42.6308221 3.13010711,43.1854315 2.80869474,43.6456288 C2.48728237,44.105826 2.09894979,44.3366661 1.64565088,44.3366661 C1.43121315,44.3366661 1.230941,44.282787 1.04288057,44.1730514 C0.856285545,44.0652931 0.682879174,43.9436943 0.521684519,43.8087492 C0.36195527,43.6723212 0.235930358,43.545285 0.140678971,43.4222032 C0.0478699278,43.3006044 0,43.2141012 0,43.1582448 C0,42.9966073 0.10844004,42.7805963 0.321900841,42.5092233 C0.696556296,41.9412677 0.976448833,41.2502303 1.16450926,40.4395713 C1.35110429,39.6269351 1.63099682,38.856809 2.00565228,38.1252387 C2.05889536,37.9636012 2.08722654,37.8148156 2.08722654,37.6783877 C2.19371271,36.8138495 2.42817766,35.9068012 2.78769059,34.9597142 C3.14915739,34.0121329 3.59659468,33.1475948 4.13244479,32.3621453 C4.18617634,32.254387 4.23941942,32.0640798 4.2926625,31.7941897 C4.42601444,31.0898061 4.68050661,30.4541308 5.05516207,29.8861752 C5.42884058,29.3177253 5.81668469,28.7769564 6.21820592,28.26288 C6.37793517,28.0453861 6.60458463,27.700856 6.89961969,27.2268183 C7.19416629,26.7532748 7.54244444,26.2797313 7.94201179,25.8061878 C8.34353302,25.3341272 8.78510868,24.9144629 9.26673877,24.5481834 C9.74788039,24.1828926 10.2690764,24 10.8303269,24 C11.2850912,24 11.7193399,24.1151729 12.1340498,24.3445301 C12.5487596,24.5753702 12.9424654,24.7987957 13.3176093,25.0148067 L13.2775549,25.0148067 C13.2775549,25.0414991 13.3176093,25.1299796 13.3972297,25.2782708 C13.4773385,25.4285393 13.5589128,25.5901768 13.6390217,25.7656548 C13.7186421,25.9426158 13.7987509,26.1042533 13.8788598,26.2530388 C13.9589686,26.402813 14,26.4898106 14,26.516503 C14,26.7606893 13.9394299,27.0113016 13.8192666,27.2673512 C13.6981264,27.525378 13.6390217,27.8026827 13.6390217,28.0992653 C13.6390217,28.1546274 13.6443948,28.201092 13.6580719,28.2416249 C13.6712606,28.2821579 13.6790761,28.3301054 13.6790761,28.3839845 C13.4905272,28.6825443 13.4182338,28.9998877 13.4582883,29.3374975 C13.4983427,29.6760959 13.4641499,29.9939335 13.3571753,30.291999 C13.2775549,30.5905588 13.237012,30.8737951 13.237012,31.1436853 C13.237012,31.3068057 13.2433621,31.4684432 13.2580161,31.630575 C13.2697394,31.7941897 13.2907435,31.9558272 13.3176093,32.117959 C13.3176093,32.254387 13.3112592,32.3819175 13.2980705,32.5045049 C13.2834165,32.6261038 13.2638777,32.7546229 13.237012,32.8895679 C13.237012,33.2691936 13.1100101,33.6137237 12.8569834,33.9236525 C12.6020027,34.2360528 12.4745124,34.5682252 12.4745124,34.9191813 C12.4745124,34.9997528 12.4877011,35.0541263 12.5160322,35.0813131 C12.6493842,35.3793785 12.7353547,35.6972162 12.7768745,36.0358146 C12.8169289,36.374413 12.8359792,36.6789044 12.8359792,36.9483003 C12.8359792,37.5978161 12.7026273,38.1400679 12.434458,38.5720898 C12.6493842,39.357045 12.7885977,40.019907 12.8569834,40.5606758 C12.9234151,41.101939 12.9561425,41.6970814 12.9561425,42.3475858 C12.9561425,42.7267171 13.0030355,43.0910194 13.0968215,43.4434583 C13.190119,43.795403 13.237012,44.1191723 13.237012,44.417732 C13.237012,44.6347316 13.1842574,44.8369021 13.0772827,45.0257263 C12.9971739,45.2684297 12.9292767,45.4518166 12.8760336,45.5748983 C12.8227906,45.6960029 12.769059,45.790415 12.7163044,45.8576404 C12.6625728,45.9253601 12.5751369,45.965893 12.4554621,45.9792392 C12.3352988,45.9925854 12.1682426,46 11.9533164,46 C11.311957,46 10.7966226,45.749882 10.4097554,45.2491518 C10.0214228,44.7489159 9.72687624,44.1478419 9.52709256,43.4434583 C9.32730889,42.7400634 9.19249154,42.0164019 9.12557133,41.2714854 C9.0591396,40.5280518 9.0264122,39.9116543 9.0264122,39.4247646 C9.0264122,39.0184465 9.04546248,38.5582493 9.0855169,38.0441728 C9.12557133,37.5300964 9.14657549,36.9621408 9.14657549,36.340306 C9.14657549,36.1228121 9.13875999,35.893455 9.12557133,35.6492687 C9.11238268,35.4065653 9.10652106,35.1767138 9.10652106,34.9597142 C9.10652106,34.5805828 9.13143296,34.1411463 9.18614145,33.6404161 C9.239873,33.1401802 9.29311608,32.6048487 9.34635916,32.0368931 C9.40009072,31.4684432 9.45284533,30.8871413 9.50804229,30.291999 C9.55981996,29.6968567 9.58766268,29.1140719 9.58766268,28.5461163 L9.58766268,28.26288 C9.58766268,28.1546274 9.53295419,28.0992653 9.42646802,28.0992653 C9.29311608,28.0992653 9.15243711,28.201092 9.00589651,28.4037567 C8.85935592,28.6074101 8.6649454,28.7092367 8.42364188,28.7092367 C8.29028994,28.7092367 8.12323366,28.8787831 7.92296152,29.2158986 C7.72122396,29.5549913 7.44768152,29.8861752 7.10086878,30.2109331 C7.10086878,30.1575483 7.11405743,30.122947 7.14092321,30.1091064 C7.16778898,30.0957602 7.18097764,30.0749994 7.18097764,30.0478127 L7.06081435,29.9667468 C7.08621472,30.0211203 7.10086878,30.0552273 7.10086878,30.0685735 C7.10086878,30.082414 7.11405743,30.1170153 7.14092321,30.1694116" id="Fill-1" fill="#FFFFFF"></path>
                    <path d="M39.1478737,31.4938459 C39.1207045,31.5214961 39.0727878,31.55296 39.0056057,31.5920517 C38.9379296,31.6311433 38.9053265,31.6773858 38.9053265,31.7293491 C38.9053265,31.781789 38.959171,31.8075323 39.06686,31.8075323 C39.1207045,31.8075323 39.1478737,31.781789 39.1478737,31.7293491 C39.1478737,31.6773858 39.1419459,31.6440149 39.1281143,31.6311433 C39.1132947,31.6182716 39.1073668,31.5863309 39.1073668,31.5329375 L39.1478737,31.4938459 Z M38.0527062,29.5364046 L38.1337199,29.4582214 C38.1337199,29.4324781 38.1277921,29.4138858 38.1144545,29.4005374 C38.0991409,29.3876658 38.0932131,29.3542949 38.0932131,29.3023316 C38.0665378,29.3285516 38.0527062,29.3676432 38.0527062,29.4191298 L38.0527062,29.5364046 Z M36.7559923,34.2517119 C36.8078608,34.1997486 36.836512,34.1349138 36.836512,34.0567305 C36.836512,33.900364 36.8157646,33.7258819 36.7752577,33.5304239 C36.7347509,33.3354425 36.6868342,33.1404611 36.6329897,32.9440496 C36.5786512,32.7485915 36.5327105,32.560761 36.4907216,32.3781746 C36.4502148,32.1965416 36.4304553,32.0663951 36.4304553,31.9867817 C36.4304553,31.8580654 36.47689,31.7078963 36.5732174,31.5386582 C36.6675687,31.3694201 36.7135095,31.1801595 36.7135095,30.9718298 C36.7135095,30.6076103 36.6537371,30.2305192 36.5327105,29.8400797 C36.4097079,29.4496403 36.3494416,29.1102106 36.3494416,28.8236977 C36.3494416,28.7474213 36.3558634,28.6692381 36.369201,28.5910549 C36.3825387,28.5133484 36.3899485,28.4203866 36.3899485,28.3164601 C36.0920747,27.6919476 35.8282861,27.2033024 35.5990765,26.8533848 C35.3688789,26.5020369 35.1050902,26.1754789 34.8082045,25.8760943 C34.5103308,25.5757563 34.212457,25.4265407 33.9155713,25.4265407 C33.6715421,25.4265407 33.4289948,25.4789807 33.1844716,25.5829072 C32.9419244,25.6868337 32.7112328,25.7392736 32.4958548,25.7392736 C32.2528136,25.7392736 31.9549399,25.9414059 31.6032216,26.344717 C31.2510095,26.7494583 30.9002792,27.2700442 30.548561,27.9074283 C30.1963488,28.5448123 29.899957,29.2546589 29.6559278,30.0350611 C29.4128866,30.81594 29.291366,31.5705989 29.291366,32.3004681 L29.291366,34.8967236 C29.291366,35.7944006 29.4128866,36.6210453 29.6559278,37.3757043 C29.7097723,37.584034 29.7977019,37.8977204 29.9192225,38.3139031 C30.0422251,38.7300858 30.2096864,39.1596169 30.4270404,39.6020196 C30.6429124,40.0444223 30.906207,40.4286643 31.2179124,40.7537921 C31.5281357,41.0793967 31.914433,41.2410072 32.3743342,41.2410072 C32.6712199,41.2410072 32.9824313,41.0793967 33.3074742,40.7537921 C33.6310352,40.4286643 33.9486684,40.0310739 34.2598797,39.562928 C34.5701031,39.0943053 34.8413015,38.6132877 35.0719931,38.1174915 C35.3012027,37.6245558 35.4568084,37.2198145 35.5378222,36.9075583 C35.6726804,36.4394123 35.8356959,35.9836613 36.0248926,35.5412586 C36.2135954,35.0974257 36.4576246,34.6683713 36.7559923,34.2517119 Z M29.0473368,37.1707116 C29.0473368,37.1444916 29.0532646,37.13162 29.0685782,37.13162 C29.0819158,37.13162 29.0878436,37.1182716 29.0878436,37.0925284 C29.0878436,37.0405651 29.074506,37.0071942 29.0473368,36.9943226 C29.0206615,36.9809743 29.0073239,36.9495103 29.0073239,36.8961168 C28.9529854,36.9495103 28.9263101,36.9881252 28.9263101,37.0143452 C28.9263101,37.0405651 28.9129725,37.0663084 28.8858033,37.0925284 C28.8858033,37.1964549 28.9129725,37.2484181 28.966817,37.2484181 C28.9934923,37.2484181 29.0073239,37.2431741 29.0073239,37.2298258 C29.0073239,37.2169541 29.0206615,37.2098032 29.0473368,37.2098032 L29.0473368,37.1707116 Z M29.0878436,34.1172749 L29.0878436,33.8631793 C29.0878436,33.7978677 29.0473368,33.7258819 28.966817,33.6476987 C28.8858033,33.7258819 28.8452964,33.8035885 28.8452964,33.8817717 C28.8452964,33.9599549 28.858634,34.02622 28.8858033,34.07866 C28.9129725,34.1306232 28.9529854,34.1825865 29.0073239,34.2345497 C29.0611684,34.1825865 29.0878436,34.1434948 29.0878436,34.1172749 Z M28.6012672,36.1138077 C28.7899699,36.1138077 28.8991409,36.0804369 28.9263101,36.015602 C28.9529854,35.9502904 29.0073239,35.8539915 29.0878436,35.7219381 C29.0339991,35.6957181 28.9801546,35.6699749 28.9263101,35.6442316 C28.8724656,35.6180116 28.8304768,35.60514 28.8047895,35.60514 C28.7494631,35.6571032 28.6896907,35.7090665 28.6220146,35.7610297 C28.5548325,35.8144232 28.5202534,35.8649562 28.5202534,35.9169195 C28.5202534,35.9965329 28.5474227,36.0618445 28.6012672,36.1138077 Z M28.6012672,41.8297651 L28.6817869,41.7906735 C28.6551117,41.7644535 28.6412801,41.744431 28.6412801,41.7315593 C28.6412801,41.718211 28.6279424,41.6981884 28.6012672,41.6719684 L28.5607603,41.6719684 L28.4797466,41.7501517 C28.4797466,41.8035451 28.5202534,41.8297651 28.6012672,41.8297651 Z M28.3582259,34.7041259 C28.3582259,34.6783826 28.3720576,34.6650342 28.3987328,34.6650342 L28.4392397,34.6264193 C28.4125644,34.5739794 28.3987328,34.5282136 28.3987328,34.489122 C28.3987328,34.4500303 28.3853952,34.405218 28.3582259,34.3518246 L28.2777062,34.4300078 C28.2777062,34.5091445 28.3028995,34.6001994 28.3582259,34.7041259 Z M27.710116,35.4878651 C27.8449742,35.5660484 27.9121564,35.4749935 27.9121564,35.2132703 C27.8854811,35.1875271 27.8583119,35.1408078 27.8311426,35.075973 C27.8044674,35.0106614 27.7624785,34.9777672 27.710116,34.9777672 C27.5466065,34.9777672 27.4655928,35.0702522 27.4655928,35.252362 C27.4655928,35.4082517 27.5466065,35.4878651 27.710116,35.4878651 Z M26.7364691,38.5408252 C26.8174828,38.5150819 26.8574957,38.4631187 26.8574957,38.3849354 C26.8574957,38.2533588 26.809579,38.1432348 26.7152277,38.0507498 C26.6208763,37.9596949 26.5457904,37.9148826 26.4919459,37.9148826 C26.4109321,37.9930658 26.3709192,38.1232123 26.3709192,38.305322 C26.3709192,38.4888619 26.451439,38.5799168 26.6134665,38.5799168 C26.6401418,38.5799168 26.6613832,38.5741961 26.6752148,38.5598943 C26.6885524,38.5465459 26.7078179,38.5408252 26.7364691,38.5408252 Z M17.325043,41.9465632 C17.2978737,41.9465632 17.2845361,41.9336916 17.2845361,41.9074716 L17.325043,41.9074716 L17.325043,41.9465632 Z M40,28.8627893 C40,29.0706423 39.8710696,29.2327295 39.6151847,29.3500043 C39.3573239,29.4672792 39.2288875,29.6174482 39.2288875,29.7995579 C39.2288875,29.9297044 39.2362973,30.0798735 39.2496349,30.2491116 C39.2629725,30.4183497 39.2708763,30.5689954 39.2708763,30.6991419 C39.2708763,30.9851781 39.2288875,31.2454711 39.1478737,31.4795441 C39.3919029,31.6354338 39.5134235,31.8189737 39.5134235,32.0273035 C39.5134235,32.1574499 39.4788445,32.2613764 39.4116624,32.3395597 C39.3439863,32.4172662 39.3113832,32.4954494 39.3113832,32.5736327 C39.3113832,32.6518159 39.3306486,32.7238017 39.3711555,32.7891133 C39.4116624,32.8539482 39.4324098,32.913539 39.4324098,32.9655023 C39.4324098,33.0956488 39.351396,33.2386669 39.1883806,33.3945566 C39.0263531,33.5509231 38.8781572,33.7072896 38.741817,33.8631793 C38.6879725,33.8112161 38.6207904,33.7587761 38.5397766,33.7072896 C38.4587629,33.6548496 38.4049184,33.6291064 38.3777491,33.6291064 C38.3510739,33.6291064 38.3164948,33.6548496 38.275988,33.7072896 C38.2354811,33.7587761 38.2147337,33.7978677 38.2147337,33.8240877 C38.2419029,34.0324174 38.2626503,34.2273988 38.275988,34.4095085 C38.2898196,34.5916183 38.2967354,34.7885065 38.2967354,34.9963595 C38.2685782,35.1784693 38.2354811,35.3477074 38.1949742,35.5040738 C38.1549613,35.6613938 38.1203823,35.8306319 38.0932131,36.0127416 C38.0126933,36.3249978 37.9781143,36.7168675 37.9914519,37.1850134 C38.0047895,37.6531594 37.9183419,37.9654156 37.7276632,38.1217821 C37.5389605,38.279102 37.4041022,38.5136517 37.3235825,38.8254312 C37.2410868,39.1381642 37.1734107,39.4389789 37.1200601,39.7250152 C37.0657216,40.0110514 37.0044674,40.2641935 36.9367912,40.4853948 C36.8696091,40.7080264 36.7406787,40.8176736 36.5519759,40.8176736 C36.4981314,40.8176736 36.4502148,40.8119528 36.4097079,40.7990812 C36.369201,40.7857329 36.3227663,40.778582 36.2689218,40.778582 C36.1325816,41.1442316 35.9843857,41.541822 35.8228522,41.971353 C35.6593428,42.4004074 35.4493986,42.7979977 35.1935137,43.1626939 C34.9356529,43.5269134 34.6185137,43.8329722 34.2406143,44.0803935 C33.8602448,44.3273381 33.388488,44.4517639 32.8204038,44.4517639 C32.7112328,44.4517639 32.6109536,44.4317414 32.5166022,44.3926497 C32.4207689,44.3535581 32.3338273,44.3349658 32.2528136,44.3349658 C32.1164734,44.3349658 31.9682775,44.3735807 31.806744,44.4517639 C31.6437285,44.5299471 31.4950387,44.5690387 31.3601804,44.5690387 C30.8182775,44.5690387 30.4601375,44.4646355 30.2847723,44.2563058 C30.1099012,44.049883 29.8727878,43.8939932 29.5749141,43.78959 C29.2770404,43.6856635 28.966817,43.5092745 28.6412801,43.2632833 C28.3182131,43.0163387 28.0065077,42.7245818 27.710116,42.3861056 C27.4117483,42.0495363 27.1272122,41.6905608 26.8574957,41.3134697 C26.5862973,40.9378088 26.3570876,40.5659617 26.1669029,40.2017422 C26.1130584,40.0978157 26.0320447,39.8966369 25.9243557,39.597729 C25.8166667,39.2997746 25.6936641,38.9674959 25.5588058,38.6032764 C25.4239476,38.2400104 25.3088488,37.8757909 25.2140034,37.5115715 C25.120146,37.1487822 25.0722294,36.8493976 25.0722294,36.6153246 C25.0722294,36.5633614 25.0796392,36.4908988 25.0929768,36.4003207 C25.1063144,36.310696 25.1122423,36.2253619 25.1122423,36.1471786 C25.1122423,36.0427754 25.085567,35.9650689 25.0317225,35.9131057 C24.7081615,35.5240964 24.4700601,35.2304325 24.3213703,35.0354512 C24.1731744,34.8414232 23.9232174,34.7432175 23.5714991,34.7432175 C23.4366409,34.7432175 23.2266967,34.7951807 22.9436426,34.8995839 C22.6591065,35.0049406 22.3686426,35.1350871 22.0702749,35.2914536 C21.7724012,35.4473433 21.5160223,35.6237323 21.3006443,35.8201439 C21.0832904,36.015602 20.9751074,36.191991 20.9751074,36.3478807 C21.0022766,36.4537141 21.0561211,36.5113981 21.1371349,36.5242697 C21.2196306,36.5376181 21.3006443,36.5504897 21.3811641,36.5633614 C21.4621778,36.5776632 21.5372637,36.6096039 21.6044459,36.6615671 C21.672122,36.7135304 21.706207,36.8436769 21.706207,37.0534368 C21.706207,37.3137297 21.6316151,37.568302 21.4829253,37.8166768 C21.3337414,38.0655283 21.2601375,38.2924504 21.2601375,38.5017336 C21.2601375,38.68432 21.3411512,38.8807316 21.5026847,39.0885846 C21.6657002,39.2983445 21.7467139,39.5457658 21.7467139,39.831802 C21.7467139,39.8851955 21.7393041,39.9371587 21.7254725,39.989122 C21.7121349,40.0415619 21.706207,40.0935252 21.706207,40.1454884 C21.706207,40.3290283 21.7121349,40.4982664 21.7254725,40.6541562 C21.7393041,40.8119528 21.7467139,40.9683193 21.7467139,41.1242091 C21.7467139,41.4378955 21.706207,41.7253619 21.6237113,41.9856548 C21.5703608,42.1158013 21.5372637,42.3441536 21.5234321,42.6707116 C21.5086125,42.9977464 21.4681057,43.3300251 21.4009235,43.6685013 C21.3337414,44.007931 21.2122208,44.3144665 21.0368557,44.5890613 C20.8600086,44.8622259 20.5962199,45 20.2459837,45 C19.5420533,45 19.0085481,44.9532807 18.6429983,44.8622259 C18.2774485,44.7683107 18.0082259,44.6167115 17.8313789,44.4069515 C17.6560137,44.1962382 17.540421,43.9183063 17.4865765,43.5760163 C17.432732,43.2332495 17.3517182,42.8113461 17.2440292,42.3093525 C17.2440292,42.2573893 17.2573668,42.1925544 17.2845361,42.112941 C17.3112113,42.0333276 17.3383806,41.9537141 17.3655498,41.8745774 L17.325043,41.8745774 L17.325043,41.8354858 C17.2697165,41.8354858 17.2440292,41.8483575 17.2440292,41.8745774 C17.0810137,41.6905608 17,41.4798474 17,41.2410072 C17,41.0588975 17.0612543,40.8767877 17.1827749,40.694678 C17.3038015,40.5125683 17.3655498,40.3175869 17.3655498,40.1092572 C17.3655498,40.0835139 17.3443084,39.9791107 17.3038015,39.797001 C17.2637887,39.613461 17.2232818,39.4127589 17.1827749,39.1915576 C17.142268,38.9689261 17.107689,38.7620265 17.0810137,38.5651383 C17.0538445,38.3701569 17.0405069,38.2605097 17.0405069,38.2347664 C17.0405069,38.1303632 17.0538445,38.0655283 17.0810137,38.0378781 C17.1887027,37.8309786 17.2573668,37.6083471 17.2845361,37.3742741 C17.3112113,37.1402011 17.325043,36.8999307 17.325043,36.6515559 C17.325043,36.4041345 17.3383806,36.1571899 17.3655498,35.9102453 C17.3922251,35.662824 17.4599012,35.4216001 17.5675902,35.1875271 C17.5947595,35.1350871 17.6080971,35.0440322 17.6080971,34.9138858 C17.6080971,34.757996 17.5542526,34.6021063 17.4460696,34.4457398 C17.3383806,34.2893733 17.2845361,34.118705 17.2845361,33.937072 C17.2845361,33.8584121 17.2904639,33.7878565 17.3038015,33.7230216 C17.3176332,33.65771 17.3383806,33.5857242 17.3655498,33.507541 C17.3383806,33.4555777 17.325043,33.3640461 17.325043,33.2338996 C17.325043,33.1042299 17.3443084,32.9612118 17.3848153,32.8048453 C17.4268041,32.6475254 17.4460696,32.5045072 17.4460696,32.3743608 C17.4460696,32.2456444 17.4055627,32.1007194 17.325043,31.9448297 C17.3517182,31.6587934 17.3655498,31.3913496 17.3655498,31.1439282 C17.3655498,30.8969836 17.3788875,30.6295397 17.4055627,30.3430268 C17.4055627,30.2910635 17.3981529,30.2462512 17.3848153,30.2071596 C17.3714777,30.168068 17.3655498,30.1218254 17.3655498,30.0698622 C17.3655498,29.9916789 17.3788875,29.9397157 17.4055627,29.9139724 C17.6214347,29.6536795 17.7444373,29.2761116 17.7716065,28.7807922 C17.7982818,28.2859496 17.8121134,27.8568952 17.8121134,27.4912456 C17.8121134,27.3091358 17.7849442,27.134177 17.7310997,26.9649389 C17.6752792,26.7957008 17.6500859,26.6193118 17.6500859,26.437202 C17.6500859,26.3590188 17.6752792,26.2422207 17.7310997,26.0858542 C17.7849442,25.9299645 17.8313789,25.6825431 17.8718857,25.3431135 C17.9138746,25.0046373 17.9603093,24.660917 18.0141538,24.308139 C18.0679983,23.9567912 18.149012,23.6502557 18.258183,23.3899627 C18.365872,23.1296698 18.5140679,23 18.7047466,23 C18.8662801,23 19.0954897,23.0519632 19.3933634,23.1558897 C19.6902491,23.2598162 19.9747852,23.3117795 20.2459837,23.3117795 C21.0294459,23.3117795 21.52936,23.5215394 21.7467139,23.9391523 C21.9620919,24.3572419 22.0702749,24.8659097 22.0702749,25.4656323 C22.0702749,26.2231516 22.0025988,27.0183323 21.8682345,27.8540348 C21.7318943,28.6892606 21.6657002,29.5120915 21.6657002,30.3201439 C21.6657002,30.6338303 21.672122,30.9398891 21.6854596,31.2392736 C21.6987973,31.5400884 21.706207,31.8466239 21.706207,32.1603103 C21.706207,32.3162001 21.6987973,32.4725665 21.6854596,32.6298865 C21.672122,32.7862529 21.6508806,32.9564445 21.6237113,33.1390309 C21.6780498,33.1647742 21.7467139,33.1967149 21.8277277,33.2358065 C21.9087414,33.2748982 21.9759235,33.2949207 22.029768,33.2949207 C23.3823024,33.2949207 24.3292741,33.1909942 24.869695,32.9812343 C25.41061,32.7733813 25.6803265,32.3681633 25.6803265,31.7684407 C25.6803265,31.2206813 25.7880155,30.7177342 26.0053694,30.2610297 C26.2212414,29.8052787 26.451439,29.3414232 26.6959622,28.8718471 C26.9118342,28.4537575 27.1138746,27.9579613 27.3035653,27.383982 C27.492762,26.8100026 27.6948024,26.2622432 27.9121564,25.7392736 C28.1280284,25.2186877 28.3582259,24.7748548 28.6012672,24.4092052 C28.8452964,24.0435555 29.1283505,23.8614458 29.4533935,23.8614458 C29.6420962,23.8614458 29.8036297,23.8800381 29.9399699,23.9191298 C30.0748282,23.9577446 30.2096864,23.9782439 30.3460266,23.9782439 C30.5618986,23.9782439 30.7372637,23.9000607 30.873604,23.7427407 C31.0079682,23.586851 31.1699957,23.5086678 31.3601804,23.5086678 C31.4411942,23.5086678 31.5217139,23.5415619 31.6032216,23.6068735 C31.6837414,23.6717084 31.7662371,23.7036491 31.8472509,23.7036491 C32.1436426,23.7036491 32.4479381,23.6588368 32.7591495,23.5663517 C33.0693729,23.4752969 33.4018256,23.4304845 33.7540378,23.4304845 C33.8602448,23.4304845 33.9560782,23.4433562 34.0370919,23.4695761 C34.1176117,23.4953194 34.212457,23.5086678 34.321628,23.5086678 C34.4026418,23.5086678 34.4836555,23.4886452 34.5641753,23.4490769 C34.645189,23.4099853 34.7262027,23.3913929 34.8082045,23.3913929 C35.0240765,23.3913929 35.1994416,23.4752969 35.3357818,23.6459652 C35.47064,23.8152033 35.686018,23.9000607 35.9843857,23.9000607 C36.6868342,24.0302072 37.2544244,24.1994453 37.6871564,24.407775 C38.1203823,24.615628 38.5200172,24.9092918 38.8840851,25.2863829 C39.2496349,25.6653809 39.4324098,26.1540262 39.4324098,26.7523186 C39.4324098,27.1947213 39.5060137,27.5660917 39.6556916,27.8654763 C39.8038875,28.1662911 39.9194802,28.4971396 40,28.8627893 Z" id="Fill-3" fill="#FFFFFF"></path>
                    <g id="Group-7" transform="translate(42.000000, 25.000000)">
                        <mask id="mask-2" fill="white">
                            <use xlink:href="#path-1"></use>
                        </mask>
                        <g id="Clip-6"></g>
                        <path d="M11.2140375,21.2191297 C11.2658125,21.1125892 11.2919375,21.0332919 11.2919375,20.9802649 C11.2919375,20.7126973 11.1807875,20.5273459 10.9603875,20.4208054 C10.7399875,20.3132919 10.6293125,20.1673459 10.6293125,19.9815081 C10.6293125,19.7674541 10.6882125,19.5227514 10.8050625,19.2425351 C10.9214375,18.9618324 11.0064625,18.7171297 11.0582375,18.5030757 C11.0325875,18.4500486 11.0197625,18.3571297 11.0197625,18.2228595 C11.0197625,18.0370216 11.0511125,17.8643189 11.1176125,17.7037784 C11.1807875,17.5442108 11.2401625,17.3715081 11.2919375,17.1846973 C11.2919375,16.998373 11.2012125,16.9054541 11.0197625,16.9054541 C10.9665625,16.9054541 10.9271375,16.9190757 10.9029125,16.9453459 C10.5124625,17.2639946 10.1666625,17.6181568 9.8688375,18.0034541 C9.5691125,18.3897243 9.2841125,18.7764811 9.0105125,19.1622649 C8.7383375,19.5475622 8.4642625,19.9206973 8.1920875,20.2806973 C7.9189625,20.6406973 7.6002375,20.9802649 7.2359125,21.300373 C6.8977125,21.5922649 6.6768375,21.9313459 6.5732875,22.3181027 C6.4683125,22.704373 6.2740375,23.0838324 5.9871375,23.4569676 C5.7800375,23.7225892 5.5449125,24.1351297 5.2855625,24.6945892 C5.0252625,25.2550216 4.7787375,25.8538865 4.5440875,26.4926432 C4.3103875,27.1314 4.1089875,27.7774541 3.9403625,28.4308054 C3.7707875,29.0831838 3.6871875,29.6479946 3.6871875,30.1276703 C3.6335125,30.4210216 3.5556125,30.6671838 3.4520625,30.8666432 C3.3485125,31.0670757 3.2967375,31.3001027 3.2967375,31.5657243 C3.2967375,31.6717784 3.3024375,31.8386432 3.3152625,32.0658324 C3.3280875,32.2915622 3.3613375,32.5187514 3.4131125,32.7439946 C3.4653625,32.9702108 3.5427875,33.1706432 3.6482375,33.3433459 C3.7517875,33.5175081 3.8814625,33.6031297 4.0372625,33.6031297 C4.2196625,33.6031297 4.4144125,33.5705351 4.6234125,33.5038865 C4.8305125,33.4362649 5.0119625,33.3375081 5.1687125,33.2046973 C5.3245125,33.0169135 5.5392125,32.7975081 5.8128125,32.5450216 C6.0849875,32.2915622 6.3647625,32.0186432 6.6511875,31.7267514 C6.9361875,31.4329135 7.1841375,31.1395622 7.3917125,30.8476703 C7.6002375,30.5533459 7.7037875,30.2614541 7.7037875,29.9681027 C7.7037875,29.8620486 7.7560375,29.7141568 7.8595875,29.5283189 C7.9631375,29.3424811 8.0742875,29.1289135 8.1920875,28.8900486 C8.3089375,28.6492378 8.4253125,28.410373 8.5421625,28.1715081 C8.6590125,27.9306973 8.7440375,27.6918324 8.7958125,27.4515081 C8.7958125,27.4247514 8.8547125,27.3454541 8.9715625,27.2126432 C9.0879375,27.078373 9.2119125,26.9382649 9.3415875,26.7923189 C9.4726875,26.6458865 9.5895375,26.4984811 9.6930875,26.3525351 C9.7966375,26.2061027 9.8484125,26.0927514 9.8484125,26.0129676 C9.8484125,25.9069135 9.7709875,25.8139946 9.6151875,25.7342108 C9.4598625,25.6534541 9.3287625,25.5736703 9.2252125,25.4938865 C9.5116375,24.828373 9.7377375,24.2888595 9.9077875,23.8753459 C10.0759375,23.4628054 10.2260375,23.0629135 10.3571375,22.6781027 C10.4868125,22.2913459 10.5514125,22.0315622 10.5514125,21.8987514 C10.5514125,21.7912378 10.5442875,21.7056162 10.5314625,21.6394541 C10.5186375,21.5728054 10.5124625,21.5124811 10.5124625,21.4594541 C10.5124625,21.3796703 10.5257625,21.3135081 10.5514125,21.2599946 C10.5775375,21.2059946 10.6164875,21.1524811 10.6682625,21.0994541 C10.7461625,21.0994541 10.8178875,21.1393459 10.8829625,21.2191297 C10.9475625,21.300373 11.0064625,21.3397784 11.0582375,21.3397784 C11.0843625,21.3397784 11.1361375,21.300373 11.2140375,21.2191297 M18.1965375,10.0742108 C18.2487875,10.2084811 18.3005625,10.3276703 18.3523375,10.4342108 C18.4041125,10.5402649 18.4687125,10.6730757 18.5470875,10.8321568 C18.2098375,11.0462108 17.8379125,11.2661027 17.4365375,11.4918324 C17.0327875,11.7190216 16.6760625,11.9788054 16.3630375,12.2706973 C16.2319375,12.2706973 16.0248375,12.3514541 15.7393625,12.5110216 C15.4529375,12.6705892 15.1665125,12.9036162 14.8810375,13.2105892 C14.5946125,13.5170757 14.3409625,13.8697784 14.1205625,14.2677243 C13.8987375,14.6676162 13.7894875,15.1074 13.7894875,15.5865892 C13.7894875,15.6401027 13.7951875,15.6868054 13.8080125,15.7266973 C13.8208375,15.7665892 13.8279625,15.8137784 13.8279625,15.8672919 C13.8279625,15.9996162 13.8008875,16.1192919 13.7505375,16.2253459 C13.4641125,16.6797243 13.2422875,17.0591838 13.0864875,17.3642108 C12.9306875,17.6711838 12.8532625,18.0637784 12.8532625,18.5429676 C12.8532625,18.7302649 12.8589625,18.9088054 12.8717875,19.0829676 C12.8850875,19.2556703 12.8922125,19.4220486 12.8922125,19.5816162 C12.8922125,20.8056162 12.6965125,21.9790216 12.3074875,23.0969676 C12.1502625,23.3903189 12.0723625,23.7031297 12.0723625,24.0368595 C12.0723625,24.3686432 11.9688125,24.6814541 11.7598125,24.9748054 C11.6044875,25.1869135 11.5322875,25.4598324 11.5455875,25.7935622 C11.5584125,26.1268054 11.4876375,26.3598324 11.3323125,26.4926432 C11.1750875,26.6254541 11.0644125,26.7786973 10.9993375,26.9528595 C10.9347375,27.1255622 10.8886625,27.2982649 10.8639625,27.472427 C10.8368875,27.6446432 10.8178875,27.7969135 10.8050625,27.9306973 C10.7917625,28.0635081 10.7461625,28.1715081 10.6682625,28.2508054 C10.5124625,28.3305892 10.4017875,28.4308054 10.3367125,28.5504811 C10.2721125,28.6701568 10.2331625,28.7951838 10.2203375,28.9299405 C10.2056125,29.0622649 10.1946875,29.202373 10.1813875,29.3483189 C10.1666625,29.4947514 10.1353125,29.634373 10.0835375,29.7691297 L10.1614375,29.7292378 C10.0574125,29.8352919 9.9524375,29.9812378 9.8484125,30.1685351 C9.7448625,30.354373 9.6284875,30.5406973 9.4988125,30.7279946 C9.3677125,30.9401027 9.2252125,31.1672919 9.0694125,31.4061568 C9.0694125,31.9121027 9.0162125,32.2254 8.9140875,32.3445892 C8.8086375,32.4657243 8.5754125,32.5907514 8.2110875,32.7250216 C8.2110875,33.4435622 8.0296375,34.0156703 7.6648375,34.4423189 C7.3009875,34.8684811 6.8787125,35.194427 6.3975375,35.4216162 C5.9168375,35.6473459 5.4413625,35.8010757 4.9730125,35.880373 C4.5046625,35.9601568 4.1792875,36.0000486 3.9983125,36.0000486 C3.7907375,36.0000486 3.5038375,35.9261027 3.1409375,35.7801568 C2.7766125,35.6342108 2.4194125,35.4279405 2.0679125,35.1623189 C1.7164125,34.8952378 1.4038625,34.5751297 1.1316875,34.2034541 C0.8580875,33.8298324 0.7227125,33.4172919 0.7227125,32.964373 C0.7227125,32.3518865 0.7616625,31.7189676 0.8395625,31.0670757 C0.9169875,30.4137243 0.9692375,29.7822649 0.9948875,29.1697784 C0.9948875,28.8501568 1.0599625,28.5105892 1.1905875,28.1505892 C1.3202625,27.7905892 1.4561125,27.4174541 1.6000375,27.0326432 C1.7425375,26.6458865 1.8793375,26.2459946 2.0090125,25.8329676 C2.1386875,25.420427 2.2294125,25.0146973 2.2826125,24.6148054 C2.3082625,24.3759405 2.3866375,24.1219946 2.5158375,23.856373 C2.6455125,23.5897784 2.7827875,23.3431297 2.9262375,23.1174 C3.0692125,22.8902108 3.1984125,22.6912378 3.3152625,22.5185351 C3.4335375,22.344373 3.4910125,22.2178865 3.4910125,22.1381027 C3.5689125,21.6851838 3.7389625,21.2794541 3.9983125,20.9194541 C4.2586125,20.5609135 4.5307875,20.2067514 4.8176875,19.8618324 C5.2076625,19.3291297 5.6427625,18.7570216 6.1239375,18.1430757 C6.6051125,17.5310757 7.1451875,16.8791838 7.7427375,16.1854541 C7.9503125,15.9733459 8.1778375,15.8274 8.4253125,15.7461568 C8.6718375,15.666373 8.8604125,15.4805351 8.9915125,15.1871838 C9.1473125,14.8150216 9.3933625,14.4881027 9.7320375,14.2088595 C10.0707125,13.9286432 10.4074875,13.6557243 10.7461625,13.3901027 C11.0843625,13.1230216 11.3826625,12.8311297 11.6434375,12.5110216 C11.9027875,12.1909135 12.0338875,11.8061027 12.0338875,11.3531838 C12.0338875,11.2189135 12.0595375,11.0199405 12.1113125,10.752373 C12.1630875,10.4872378 12.2281625,10.2084811 12.3074875,9.91512973 C12.3849125,9.62129189 12.4499875,9.34253514 12.5017625,9.07545405 C12.5535375,8.80983243 12.5796625,8.59626486 12.5796625,8.4366973 C12.5796625,8.30388649 12.5668375,8.16961622 12.5407125,8.03680541 C12.5145875,7.90399459 12.5017625,7.77118378 12.5017625,7.6374 C12.5017625,7.34502162 12.5335875,7.00448108 12.5996125,6.61772432 C12.6632625,6.23291351 12.7088625,5.85394054 12.7349875,5.48031892 C12.7349875,5.45404865 12.7088625,5.42777838 12.6575625,5.40102162 C12.6053125,5.37426486 12.5535375,5.35918378 12.5017625,5.35918378 C12.1892125,5.41415676 11.9165625,5.59999459 11.6823875,5.9201027 C11.4491625,6.23875135 11.1361375,6.45280541 10.7461625,6.55885946 C10.7200375,6.55885946 10.6497375,6.60604865 10.5314625,6.69896757 C10.4146125,6.79188649 10.2849375,6.89842703 10.1424375,7.01761622 C9.9985125,7.13875135 9.8745375,7.27156216 9.7709875,7.41750811 C9.6669625,7.56491351 9.6151875,7.70356216 9.6151875,7.83637297 C9.6151875,8.05042703 9.5306375,8.23626486 9.3620125,8.39680541 C9.1919625,8.55637297 8.9140875,8.64929189 8.5236375,8.67556216 C8.5236375,8.73053514 8.4846875,8.86334595 8.4053625,9.07545405 C8.3274625,9.28950811 8.2310375,9.51475135 8.1132375,9.7541027 C7.9963875,9.99442703 7.8538875,10.2084811 7.6838375,10.3943189 C7.5152125,10.5801568 7.3394625,10.6730757 7.1580125,10.6730757 C7.0801125,10.6730757 6.9751375,10.7601568 6.8454625,10.932373 C6.7157875,11.1065351 6.5861125,11.3059946 6.4550125,11.5317243 C6.3253375,11.7589135 6.2089625,11.9977784 6.1054125,12.2512378 C5.9999625,12.5051838 5.9353625,12.7099946 5.9097125,12.8710216 C5.8056875,13.4037243 5.5130875,13.8031297 5.0323875,14.0687514 C4.5512125,14.3358324 4.0771625,14.4686432 3.6092875,14.4686432 C3.2967375,14.4686432 2.9452375,14.4482108 2.5547875,14.4083189 C2.1657625,14.368427 1.8014375,14.2088595 1.4632375,13.9286432 C1.1245625,13.6498865 0.8395625,13.2042649 0.6049125,12.5908054 C0.3712125,11.9788054 0.2548375,11.1128595 0.2548375,9.99442703 C0.2548375,9.35567027 0.3512625,8.76994054 0.5469625,8.23626486 C0.7417125,7.70356216 0.8395625,7.18399459 0.8395625,6.67853514 C1.0989125,6.19885946 1.3074375,5.75956216 1.4632375,5.35918378 C1.6185625,4.96123784 1.8071375,4.56718378 2.0289625,4.18237297 C2.2493625,3.7961027 2.5490875,3.39621081 2.9262375,2.98318378 C3.3024375,2.57015676 3.8425125,2.12453514 4.5440875,1.64534595 C5.1430625,1.19194054 5.7410875,0.812967568 6.3386375,0.505994595 C6.9361875,0.200967568 7.5484625,0.0472378378 8.1721375,0.0472378378 C8.5882375,0.0472378378 9.0162125,0.0871297297 9.4598625,0.166913514 C9.9001875,0.246697297 10.2911125,0.37367027 10.6293125,0.545886486 C10.9665625,0.720048649 11.2472875,0.925345946 11.4676875,1.16567027 C11.6880875,1.40502162 11.7987625,1.68475135 11.7987625,2.00485946 C11.7987625,2.19118378 11.7469875,2.3706973 11.6434375,2.5434 C11.5398875,2.71756216 11.3826625,2.80318378 11.1750875,2.80318378 C11.0197625,2.80318378 10.8568375,2.75745405 10.6882125,2.66453514 C10.5186375,2.57015676 10.3367125,2.47723784 10.1424375,2.38431892 C9.9467375,2.2914 9.7652875,2.19848108 9.5952375,2.1041027 C9.4266125,2.01118378 9.2641625,1.96545405 9.1083625,1.96545405 C8.8993625,1.96545405 8.6789625,2.00485946 8.4457375,2.08464324 C8.2889875,2.16442703 7.9189625,2.39745405 7.3337625,2.78372432 C6.7490375,3.17048108 6.1239375,3.66912973 5.4613125,4.28112973 C4.7991625,4.89458919 4.2068375,5.61312973 3.6871875,6.43967027 C3.1656375,7.26377838 2.9062875,8.12972432 2.9062875,9.03556216 C2.9062875,9.08858919 2.9119875,9.15523784 2.9262375,9.23502162 C2.9395375,9.31431892 2.9452375,9.39556216 2.9452375,9.47534595 C2.9452375,9.74048108 2.9062875,10.0002649 2.8283875,10.2542108 C2.7509625,10.5076703 2.7120125,10.7805892 2.7120125,11.0729676 C2.7120125,11.2865351 2.7362375,11.506427 2.7899125,11.7321568 C2.8416875,11.9578865 2.9580625,12.0717243 3.1409375,12.0717243 C3.2706125,12.0717243 3.4653625,11.9520486 3.7256625,11.7117243 C3.9850125,11.472373 4.2714375,11.1863189 4.5844625,10.8530757 C4.8955875,10.5212919 5.2138375,10.174427 5.5392125,9.81442703 C5.8645875,9.45442703 6.1700125,9.16837297 6.4550125,8.95577838 C6.7157875,8.87648108 6.9623125,8.75534595 7.1969625,8.59626486 C7.4045375,8.46345405 7.6130625,8.28345405 7.8206375,8.05626486 C8.0296375,7.83053514 8.1977875,7.54448108 8.3274625,7.19761622 C8.4314875,6.98502162 8.5621125,6.83761622 8.7179125,6.75783243 C9.0304625,6.62502162 9.2841125,6.43188649 9.4783875,6.17988649 C9.6740875,5.92594054 9.8355875,5.65302162 9.9666875,5.35918378 C10.0445875,5.22685946 10.1424375,5.12031892 10.2592875,5.04102162 C10.3756625,4.96123784 10.4925125,4.88729189 10.6103125,4.82112973 C10.7271625,4.75448108 10.8440125,4.67518378 10.9603875,4.58080541 C11.0772375,4.48788649 11.1622625,4.34923784 11.2140375,4.16145405 C11.2140375,3.9761027 11.3712625,3.82237297 11.6823875,3.70318378 C11.9949375,3.58204865 12.1892125,3.41664324 12.2671125,3.20307568 C12.3706625,2.88296757 12.6186125,2.59058919 13.0085875,2.32399459 C13.3990375,2.05837297 13.7619375,1.92556216 14.1006125,1.92556216 C14.9071625,1.92556216 15.4472375,2.05837297 15.7194125,2.32399459 C15.9930125,2.59058919 16.1283875,3.04350811 16.1283875,3.68226486 C16.1283875,4.45529189 16.0177125,5.22102162 15.7973125,5.97896757 C15.5769125,6.73885946 15.4272875,7.50458919 15.3493875,8.27615676 C15.3232625,8.51648108 15.2325375,8.7821027 15.0753125,9.07545405 C14.9199875,9.36929189 14.8420875,9.56826486 14.8420875,9.67431892 C14.8420875,9.88837297 14.9389875,10.0080486 15.1346875,10.0343189 C15.3289625,10.0605892 15.4918875,10.0742108 15.6215625,10.0742108 C15.8305625,10.0742108 16.1027375,9.99442703 16.4409375,9.83388649 C16.7796125,9.67431892 17.0779125,9.59453514 17.3382125,9.59453514 C17.6754625,9.59453514 17.9623625,9.7541027 18.1965375,10.0742108" id="Fill-5" fill="#FFFFFF" mask="url(#mask-2)"></path>
                    </g>
                    <path d="M80.8812295,42.5288716 C80.6697602,43.2865199 80.3718685,43.8426661 79.9880371,44.1968359 C79.6046886,44.548635 79.0837401,44.8160403 78.4232606,45 C78.0790194,44.7657833 77.7014645,44.5130758 77.29301,44.2395069 C76.8831071,43.9678345 76.6779143,43.5984928 76.6779143,43.1314818 C76.6779143,42.7934322 76.586181,42.5734391 76.3998176,42.468658 C76.2153854,42.3648251 76.1236522,42.1709088 76.1236522,41.8850127 C76.1236522,41.677821 76.1294458,41.4635175 76.1429644,41.2421021 C76.1555174,41.0221091 76.1632423,40.8078056 76.1632423,40.5996656 C76.1101336,40.2630384 76.0502655,39.8861107 75.984121,39.4707791 C75.9189421,39.0568698 75.8846628,38.6917952 75.8846628,38.3812447 C75.8846628,38.22431 75.8976986,38.0635824 75.9257014,37.8938464 C75.9508074,37.7255328 75.9652916,37.5629086 75.9652916,37.4078704 C75.9372888,37.2006787 75.9049407,37.0053401 75.8658334,36.8242252 C75.8262432,36.6431102 75.7924468,36.4605729 75.7658924,36.2780356 C75.7658924,36.1225233 75.8001717,35.9613216 75.8658334,35.7920597 C75.9314951,35.6237461 75.9652916,35.4743974 75.9652916,35.3449618 C75.9652916,35.2141039 75.9445309,35.0789789 75.9049407,34.9348455 C75.8658334,34.7930828 75.8450727,34.6560613 75.8450727,34.5266257 C75.8450727,34.1112941 75.8846628,33.6570844 75.9652916,33.1639966 C76.0439891,32.6709088 76.0835792,32.1906223 76.0835792,31.7231372 C76.0835792,31.5941758 76.0763371,31.4704297 76.0633013,31.3537955 C76.0502655,31.2376354 75.9768789,31.1394919 75.8450727,31.0617358 C75.7924468,31.0617358 75.7403036,31.0678994 75.6871949,31.0807007 C75.634569,31.0949244 75.5814602,31.1006139 75.5288343,31.1006139 C75.5288343,31.1522933 75.4293761,31.3078056 75.2314254,31.568099 C75.0329918,31.8269701 74.8084867,32.1185557 74.5569444,32.443804 C74.3049193,32.7685781 74.068344,33.0933523 73.8438388,33.4167041 C73.6183681,33.7419524 73.4682152,33.9946599 73.3875865,34.1757748 C73.3344778,34.3066327 73.2683332,34.4749463 73.1891529,34.682138 C73.1104554,34.8907521 73.0245159,35.0917802 72.931817,35.2856965 C72.8381525,35.4800868 72.7266241,35.719993 72.5948179,36.0063632 C72.3828657,36.0836453 72.2245051,36.2073913 72.1192533,36.3757049 C72.012553,36.5449668 71.9198541,36.7208664 71.8411566,36.9019813 C71.7619763,37.0830963 71.6963146,37.2585217 71.6436886,37.4263612 C71.5891315,37.5960972 71.5249182,37.7184209 71.4442895,37.7975994 C71.1280511,38.0559964 70.8234,38.4590008 70.533716,39.003768 C70.2425836,39.5485352 69.9113781,40.0933024 69.5425138,40.6385437 C69.1707526,41.1847332 68.7492624,41.6645456 68.273215,42.078929 C67.7976503,42.4942606 67.2163511,42.7028747 66.5283515,42.7028747 C65.8944263,42.7028747 65.260501,42.4828817 64.6265758,42.0400509 C63.9912022,41.6000649 63.6353736,40.9244398 63.5547449,40.0155462 C63.502119,39.574612 63.3968671,39.1403154 63.2385065,38.7117083 C63.0791803,38.2835754 63,37.8620802 63,37.4467485 C63,36.7450467 63.0337965,36.0319659 63.0994582,35.3046614 C63.1656027,34.5783051 63.2636125,33.8913011 63.3968671,33.2417528 C63.3968671,33.215676 63.4229387,33.0274492 63.4760474,32.6780207 C63.5286734,32.3271697 63.5755056,31.8857613 63.6150958,31.3537955 C63.6546859,30.8218296 63.6937933,30.2182712 63.7333834,29.5435944 C63.7729736,28.8684434 63.7932514,28.1809652 63.7932514,27.4792634 C63.7932514,27.3242252 63.7729736,27.161601 63.7333834,26.9932874 C63.6937933,26.8249738 63.6749638,26.6628238 63.6749638,26.5063632 C63.6749638,26.3769277 63.7333834,26.2602935 63.8521539,26.1550382 C63.9723727,26.0531018 64.0964541,26 64.2297087,26 C64.7057561,26.0531018 65.1668365,26.1882268 65.617778,26.4082198 C66.0658226,26.6282128 66.2912934,26.9705295 66.2912934,27.4361182 C66.1580387,28.9888706 66.0131967,30.4970554 65.8548361,31.9592504 C65.6969583,33.4214453 65.617778,34.9291561 65.617778,36.4819085 C65.617778,36.7668563 65.6235717,37.0902081 65.6366075,37.4538604 C65.6501261,37.8160902 65.6761976,38.1655188 65.7157878,38.5016719 C65.7553779,38.8382991 65.8210396,39.1227729 65.9147041,39.3560413 C66.0069202,39.5888357 66.1329328,39.7049958 66.2912934,39.7049958 C66.5283515,39.7049958 66.851832,39.4451764 67.2617349,38.9260119 C67.6716378,38.4073215 68.1211308,37.7847981 68.6097312,37.0570195 C69.0992972,36.3311374 69.582104,35.584868 70.0581514,34.8186854 C70.533716,34.0539252 70.9552063,33.4110146 71.325519,32.8909018 C71.5365056,32.605954 71.7547342,32.3916504 71.9802049,32.2494136 C72.2042272,32.1071767 72.3563114,31.8658482 72.4354917,31.5292209 C72.5412263,31.1655687 72.7589722,30.8218296 73.0896948,30.4970554 C73.4209002,30.1722813 73.7052733,29.8802216 73.9418486,29.6213505 C74.1016576,29.46489 74.3126442,29.2060189 74.5772223,28.8423666 C74.8408347,28.4787144 75.1319672,28.1164845 75.449654,27.7523581 C75.7658924,27.3887059 76.0835792,27.0710436 76.3998176,26.7979488 C76.7175044,26.5262764 76.9811169,26.389729 77.1935518,26.389729 C77.377984,26.389729 77.5826941,26.3769277 77.8091304,26.3508509 C78.0331527,26.3247742 78.2639343,26.3119729 78.5024409,26.3119729 C79.4004613,26.3119729 80.0411459,26.5779558 80.4249772,27.1099216 C80.8088085,27.6418875 81,28.284324 81,29.0362829 C81,29.7896641 80.9063355,30.530244 80.7214205,31.2561262 C80.5374712,31.9834307 80.4457379,32.6448321 80.4457379,33.2417528 C80.4457379,33.3726107 80.4510488,33.5091581 80.4645674,33.6513949 C80.4771203,33.7936318 80.4843624,33.9429805 80.4843624,34.0984928 C80.4843624,34.64326 80.4302881,35.1752258 80.325519,35.6939163 C80.2197843,36.2145032 80.1671584,36.7336677 80.1671584,37.2514099 C80.2197843,37.8492788 80.2859289,38.4590008 80.3665576,39.0824724 C80.4457379,39.7068922 80.4843624,40.2933822 80.4843624,40.8424165 C80.4843624,40.8940959 80.4771203,40.9400858 80.4645674,40.9789639 C80.4510488,41.0192644 80.4457379,41.0638319 80.4457379,41.1169337 C80.4457379,41.3786495 80.4843624,41.627564 80.5635427,41.8617807 C80.642723,42.0974198 80.7484577,42.3188352 80.8812295,42.5288716" id="Fill-8" fill="#FFFFFF"></path>
                    <path d="M5.81422502,11.5329657 L5.81422502,15.6523396 L10.062731,15.6523396 C11.3675084,15.6523396 12.1359632,14.8791663 12.2118899,13.6695321 C12.2370375,12.9493958 11.955577,12.2793772 11.4187709,11.8930338 C10.9835227,11.5830833 10.4713807,11.5329657 9.88379564,11.5329657 L5.81422502,11.5329657 Z M5.81422502,4.29559646 L5.81422502,8.39015489 L9.32039103,8.39015489 C10.625652,8.39015489 11.4439186,7.67001865 11.4700335,6.45892466 C11.4951812,5.14564918 10.6503161,4.29559646 9.32039103,4.29559646 L5.81422502,4.29559646 Z M13.4412242,9.65331279 C15.1038723,10.3481469 16,11.8161544 16,13.6695321 C16,16.8371584 13.9016201,19 10.317593,19 L2,19 L2,1 L9.60185153,1 C12.8778196,1 15.2315451,2.95750547 15.2315451,6.33046793 C15.2315451,7.64374341 14.5675498,8.9570189 13.4412242,9.65331279 Z" id="Fill-10" fill="#FFFFFF"></path>
                    <path d="M22.5578058,12.8296175 L27.4694626,12.8296175 L25.0138734,6.94058293 L22.5578058,12.8296175 Z M21.316377,16.0415117 L19.9496093,19 L16,19 L16,18.4902979 L24.1522883,1 L25.8984213,1 L34,18.4902979 L34,19 L30.0762239,19 L28.683623,16.0415117 L21.316377,16.0415117 Z" id="Fill-12" fill="#FFFFFF"></path>
                    <g id="Group-16" transform="translate(34.000000, 0.000000)">
                        <mask id="mask-4" fill="white">
                            <use xlink:href="#path-3"></use>
                        </mask>
                        <g id="Clip-15"></g>
                        <path d="M21.3803778,18.5696256 C19.8762296,16.095241 18.372563,13.6193949 16.8953778,11.1703436 C16.2323778,11.3252667 15.7475259,11.402241 14.9578963,11.402241 L14.9578963,18.5696256 L11.1869333,18.5696256 L11.1869333,11.402241 C10.4233037,11.402241 9.9138963,11.3252667 9.2508963,11.1703436 C7.77322963,13.6193949 6.26956296,16.095241 4.7658963,18.5696256 L0.460007407,18.5696256 L0.460007407,18.0020615 C2.26941481,15.2178308 4.1028963,12.4331128 5.9383037,9.64839487 C4.84293333,8.56539487 4.30752593,6.83883077 3.79763704,4.7766 C3.41534074,3.38326667 2.44708148,2.97111282 1.09700741,3.17670256 L1.09700741,0.573702564 C4.07785926,-0.0718102564 6.49874815,0.522061538 7.1863037,3.74377949 C7.44197037,4.98170256 7.87385926,6.86367692 9.07274815,7.53452308 C9.68422963,7.92183077 10.3207481,7.94667692 11.1869333,7.94667692 L11.1869333,0.522061538 L14.9578963,0.522061538 L14.9578963,7.94667692 C15.798563,7.94667692 16.487563,7.92183077 17.0995259,7.53452308 C18.2704889,6.86367692 18.7043037,4.98170256 18.9845259,3.74377949 C19.6470444,0.522061538 22.0679333,-0.0718102564 25.0492667,0.573702564 L25.0492667,3.17670256 C23.6987111,2.97111282 22.7554889,3.38326667 22.3481556,4.7766 C21.8122667,6.83883077 21.3028593,8.56539487 20.2325259,9.64839487 C22.0419333,12.4331128 23.8768593,15.2178308 25.6857852,18.0020615 L25.6857852,18.5696256 L21.3803778,18.5696256 Z" id="Fill-14" fill="#FFFFFF" mask="url(#mask-4)"></path>
                    </g>
                    <polygon id="Fill-17" fill="#FFFFFF" points="74.0319259 19 74.0319259 11.3884465 66.9410804 11.3884465 66.9410804 19 63 19 63 1 66.9410804 1 66.9410804 7.86570387 74.0319259 7.86570387 74.0319259 1 78 1 78 19"></polygon>
                    <mask id="mask-6" fill="white">
                        <use xlink:href="#path-5"></use>
                    </mask>
                    <g id="Clip-20"></g>
                    <path d="M97.2508022,19 L101,19 L101,1.00048588 L97.2508022,1.00048588 L97.2508022,19 Z M88.0686664,10.0257518 L84.6731395,10.0257518 L84.6731395,15.6051396 C85.7037292,15.6051396 86.7599886,15.6313772 87.8162479,15.6313772 C89.7538326,15.6313772 90.8866256,14.8597959 91.0625104,13.1621228 C91.2136762,11.5431626 90.2078055,10.0257518 88.4465809,10.0257518 L88.0686664,10.0257518 Z M84.6731395,1.43729417 L84.6731395,6.63089132 L88.4465809,6.63089132 C92.8750743,6.63089132 95.0627005,10.1540247 94.6605424,13.5999028 C94.3073468,16.5054797 92.1439641,19 88.4465809,19 L81,19 L81,1 L84.6731395,1 L84.6731395,1.43729417 Z" id="Fill-19" fill="#FFFFFF" mask="url(#mask-6)"></path>
                    <polygon id="Fill-21" fill="#FFFFFF" mask="url(#mask-6)" points="116.797855 4.36813691 109.80032 4.36813691 109.80032 8.02051504 116.345051 8.02051504 116.345051 11.3886519 109.80032 11.3886519 109.80032 15.5021325 117 15.5021325 117 19 106 19 106 1 116.797855 1"></polygon>
                </g>
                <g id="Group" transform="translate(50.000000, 21.000000)">
                    <path d="M2.66964017,3 C3.21539541,3 3.69098928,3.12418484 4.09642177,3.37304537 C4.50035081,3.6219059 4.79753433,3.97384475 4.98697003,4.42395344 C4.94888243,4.45291354 4.86619224,4.49807166 4.73940062,4.5643363 C4.61210785,4.62765584 4.47479202,4.69392048 4.3289566,4.76263937 C4.18312118,4.8338125 4.0463065,4.90007713 3.91951488,4.96388753 C3.79222211,5.03015216 3.71003308,5.07481944 3.67194547,5.10132529 C3.46547058,4.65170745 3.14924326,4.42395344 2.72627042,4.42395344 C2.48070562,4.42395344 2.28074572,4.47402005 2.12538839,4.57758923 C1.97003107,4.67772246 1.84975444,4.81810532 1.76606194,4.99824697 C1.68086599,5.17789776 1.62423574,5.3948531 1.59567004,5.64911297 C1.56710434,5.90337284 1.55357322,6.17873922 1.55357322,6.47226702 C1.55357322,6.77659351 1.57011126,7.05981348 1.60218503,7.32438118 C1.63576225,7.58649464 1.69439711,7.80884931 1.77909191,7.99389945 C1.86428786,8.17894958 1.98205874,8.32473179 2.13340684,8.43075521 C2.28325148,8.53677863 2.47619525,8.58929949 2.71123584,8.58929949 C2.93725569,8.58929949 3.12919715,8.52892504 3.28455448,8.40964869 C3.4399118,8.29037234 3.56820688,8.13182806 3.67194547,7.93843349 C3.71003308,7.96739359 3.79222211,8.01009747 3.91951488,8.07096277 C4.0463065,8.13182806 4.18312118,8.19760185 4.3289566,8.27172008 C4.47479202,8.3458383 4.61210785,8.41210294 4.73940062,8.47051399 C4.86619224,8.53137929 4.95289165,8.57604656 5,8.60304326 C4.81256891,9.04480752 4.51538539,9.38889278 4.10995289,9.63480822 C3.70602385,9.87826941 3.22892653,10 2.68317129,10 C2.15645986,10 1.71945475,9.91262885 1.37265711,9.73837739 C1.02686178,9.56363509 0.752731282,9.31968305 0.552270222,9.01044808 C0.351308008,8.7031765 0.209481808,8.33013113 0.125789315,7.89622046 C0.04159567,7.46476404 0,6.98324101 0,6.45901409 C0,5.9509852 0.0486118072,5.48516934 0.145835421,5.06156651 C0.244562494,4.63796368 0.398416358,4.27326274 0.607898166,3.96893626 C0.818883432,3.66460977 1.09151047,3.42605708 1.42928736,3.25671412 C1.76606194,3.08442606 2.17901173,3 2.66964017,3" id="Fill-1" fill="#FFFFFF"></path>
                    <path d="M10.1724665,5.85036112 C10.1724665,5.41645046 10.08413,5.06696585 9.90458891,4.80485239 C9.72676864,4.54273894 9.42217973,4.41070051 8.99254302,4.41070051 C8.56118547,4.41070051 8.26405354,4.54813828 8.10344168,4.82595891 C7.94053537,5.10132529 7.8499044,5.44246547 7.82810707,5.85036112 L10.1724665,5.85036112 Z M10.3502868,7.93843349 C10.5975143,8.0493654 10.8435946,8.16078816 11.0862333,8.27172008 C11.3288719,8.38019774 11.5732314,8.49701984 11.8221797,8.61580534 C11.5732314,9.07376762 11.2066922,9.41785289 10.7225621,9.65051539 C10.2372849,9.88366875 9.69751434,10 9.10554493,10 C7.97323136,10 7.17246654,9.71432578 6.70382409,9.1424865 C6.23518164,8.57064722 6,7.6949723 6,6.51448005 C6,6.02510343 6.04646272,5.56714115 6.1376673,5.14402917 C6.22944551,4.71993549 6.39120459,4.34983521 6.62351816,4.02980156 C6.85525813,3.7117313 7.16443595,3.46041652 7.55277247,3.27487553 C7.94053537,3.09277049 8.43097514,3 9.02466539,3 C9.57418738,3 10.0376673,3.07657247 10.4151052,3.2356076 C10.792543,3.39169764 11.0982792,3.60865297 11.3369025,3.88401935 C11.5732314,4.16183998 11.7435946,4.49021808 11.8456979,4.86866279 C11.9478011,5.2471075 12,5.65991165 12,6.11247458 L12,6.91403127 L7.81089866,6.91403127 C7.81089866,7.13884019 7.82810707,7.35383213 7.86022945,7.56244303 C7.89292543,7.77154477 7.95774379,7.95708576 8.05353728,8.11563004 C8.15105163,8.27172008 8.28126195,8.39885001 8.4418738,8.49112965 C8.6042065,8.58390015 8.81472275,8.63200337 9.07284895,8.63200337 C9.33097514,8.63200337 9.56902486,8.56819297 9.78413002,8.44400813 C9.99923518,8.31933245 10.1873805,8.14998948 10.3502868,7.93843349 Z" id="Fill-3" fill="#FFFFFF"></path>
                    <path d="M16.0187542,6.78945105 L16.7449725,5.10692275 L17.7012126,3 L19,3 L19,10 L17.5990811,10 L17.5990811,6.22409345 L17.5855238,6.22409345 L17.1530466,7.24344274 L16.4778941,8.78300129 L15.5352113,8.78300129 L14.9111245,7.39795041 C14.8858176,7.34126415 14.8261655,7.19779275 14.7321684,6.96753619 C14.639527,6.73527304 14.5324245,6.49699011 14.4144762,6.2536907 L14.4009189,6.2536907 L14.4009189,10 L13,10 L13,3 L14.2996912,3 C14.3426226,3.09481152 14.4081494,3.24079117 14.4971756,3.43844059 C14.5862017,3.63558836 14.6797469,3.8437724 14.7773593,4.06048445 L15.0575431,4.68252831 C15.1465693,4.87967608 15.2120961,5.02866562 15.2550275,5.12046725 C15.2889207,5.19621614 15.3404384,5.31259854 15.406869,5.46660456 C15.4755592,5.62362047 15.5483166,5.78615451 15.6237855,5.95621327 C15.7006101,6.12677368 15.7729156,6.28880608 15.840702,6.44331375 C15.9089403,6.60032965 15.9636213,6.71370216 16.0065527,6.78945105 L16.0187542,6.78945105 Z" id="Fill-5" fill="#FFFFFF"></path>
                    <path d="M26.1718929,5.85036112 C26.1718929,5.41645046 26.0835564,5.06696585 25.9040153,4.80485239 C25.7267686,4.54273894 25.4216061,4.41070051 24.9919694,4.41070051 C24.5600382,4.41070051 24.2634799,4.54813828 24.1028681,4.82595891 C23.9405354,5.10132529 23.8493308,5.44246547 23.8275335,5.85036112 L26.1718929,5.85036112 Z M26.3497132,7.93843349 C26.5969407,8.0493654 26.843021,8.16078816 27.0856597,8.27172008 C27.3282983,8.38019774 27.5726577,8.49701984 27.8216061,8.61580534 C27.5726577,9.07376762 27.2066922,9.41785289 26.7219885,9.65051539 C26.2367113,9.88366875 25.6969407,10 25.1049713,10 C23.9732314,10 23.1718929,9.71432578 22.7032505,9.1424865 C22.234608,8.57064722 22,7.6949723 22,6.51448005 C22,6.02510343 22.0458891,5.56714115 22.1370937,5.14402917 C22.2282983,4.71993549 22.390631,4.34983521 22.6229446,4.02980156 C22.8546845,3.7117313 23.1638623,3.46041652 23.5521989,3.27487553 C23.9405354,3.09277049 24.4304015,3 25.0246654,3 C25.5736138,3 26.0370937,3.07657247 26.4145315,3.2356076 C26.7919694,3.39169764 27.0982792,3.60865297 27.3363289,3.88401935 C27.5726577,4.16183998 27.743021,4.49021808 27.8451243,4.86866279 C27.9472275,5.2471075 28,5.65991165 28,6.11247458 L28,6.91403127 L23.810325,6.91403127 C23.810325,7.13884019 23.8275335,7.35383213 23.8596558,7.56244303 C23.8923518,7.77154477 23.9571702,7.95708576 24.0535373,8.11563004 C24.1510516,8.27172008 24.2806883,8.39885001 24.4413002,8.49112965 C24.6036329,8.58390015 24.8141491,8.63200337 25.0722753,8.63200337 C25.3304015,8.63200337 25.5684512,8.56819297 25.7835564,8.44400813 C25.9986616,8.31933245 26.1873805,8.14998948 26.3497132,7.93843349 Z" id="Fill-7" fill="#FFFFFF"></path>
                    <g id="Group-11" transform="translate(28.000000, 0.000000)">
                        <mask id="mask-8" fill="white">
                            <use xlink:href="#path-7"></use>
                        </mask>
                        <g id="Clip-10"></g>
                        <path d="M3.13185,2.349 C2.73785,2.349 2.40685,2.28233333 2.13835,2.14852381 C1.87135,2.01233333 1.65435,1.84852381 1.48985,1.65090476 C1.32535,1.45566667 1.20485,1.23947619 1.13135,1.00614286 C1.05585,0.775190476 1.01285,0.55947619 1.00485,0.361857143 L2.21635,0.361857143 C2.22585,0.461857143 2.25135,0.561857143 2.29335,0.664714286 C2.33635,0.767571429 2.39735,0.864714286 2.47635,0.952333333 C2.55635,1.04185714 2.65085,1.11661905 2.75835,1.17566667 C2.86635,1.23185714 2.99185,1.26280952 3.13185,1.26280952 C3.28285,1.26280952 3.41485,1.23185714 3.52685,1.17566667 C3.63985,1.11661905 3.73285,1.04185714 3.80835,0.952333333 C3.88385,0.864714286 3.94035,0.767571429 3.97835,0.664714286 C4.01585,0.561857143 4.03485,0.461857143 4.03485,0.361857143 L5.23185,0.361857143 C5.21285,0.55947619 5.16435,0.775190476 5.08485,1.00614286 C5.00385,1.23947619 4.88385,1.45566667 4.72535,1.65090476 C4.56485,1.84852381 4.35285,2.01233333 4.09035,2.14852381 C3.82735,2.28233333 3.50785,2.349 3.13185,2.349 Z M4.14685,5.92042857 L3.39985,7.08852381 L1.60985,9.82566667 L0.18635,9.82566667 L0.18635,3.1937619 L1.73635,3.1937619 L1.73635,7.3142381 L1.76485,7.3142381 C1.88635,7.11947619 2.00635,6.9242381 2.12335,6.73185714 C2.24085,6.539 2.36485,6.3442381 2.49585,6.14852381 C2.79485,5.64566667 3.09935,5.15280952 3.40785,4.66471429 C3.71685,4.17709524 4.02135,3.68661905 4.32035,3.1937619 L5.73985,3.1937619 L5.73985,9.82566667 L4.18985,9.82566667 L4.18985,5.92042857 L4.14685,5.92042857 Z" id="Fill-9" fill="#FFFFFF" mask="url(#mask-8)"></path>
                    </g>
                    <polygon id="Fill-12" fill="#FFFFFF" points="39.4936832 10 39.4936832 7.07338398 37.5063168 7.07338398 37.5063168 10 36 10 36 3 37.5063168 3 37.5063168 5.84284076 39.4936832 5.84284076 39.4936832 3 41 3 41 10"></polygon>
                    <mask id="mask-10" fill="white">
                        <use xlink:href="#path-9"></use>
                    </mask>
                    <g id="Clip-15"></g>
                    <path d="M48.5064614,10 L50,10 L50,3 L48.5064614,3 L48.5064614,10 Z M44.4786225,8.67163537 L45.4683805,8.67163537 C45.8210751,8.67163537 46.0703189,8.57933209 46.2141875,8.40124695 C46.3594996,8.22266017 46.4321556,8.00644976 46.4321556,7.75211409 C46.4321556,7.51684105 46.3633489,7.30564713 46.2286225,7.12204386 C46.0924526,6.93793894 45.8432087,6.84613731 45.4823343,6.84613731 C45.310077,6.84613731 45.1426313,6.84312742 44.9804784,6.84061918 C44.8173632,6.83510105 44.6499175,6.83209116 44.4786225,6.83209116 L44.4786225,8.67163537 Z M43,9.99949835 L43,3 L44.491614,3 L44.491614,5.51777268 L45.5227523,5.51777268 C45.957245,5.51777268 46.325818,5.57496058 46.6279901,5.68582485 C46.9316057,5.79919736 47.1755568,5.95621327 47.3608056,6.15336104 C47.5465356,6.35101046 47.6798185,6.58327361 47.7606544,6.85416368 C47.8419714,7.12204386 47.8823893,7.40848502 47.8823893,7.70897234 C47.8823893,8.41479146 47.6798185,8.97463093 47.2727523,9.38548087 C46.8652048,9.79432421 46.2959857,9.99949835 45.5631702,9.99949835 L43,9.99949835 Z" id="Fill-14" fill="#FFFFFF" mask="url(#mask-10)"></path>
                    <path d="M55.182031,3.09972829 C54.7569319,3.09972829 54.3988117,3.02928449 54.1092906,2.88789373 C53.8203097,2.74398712 53.5864242,2.57089665 53.4087144,2.36208111 C53.2310047,2.15578142 53.1008282,1.92734226 53.021426,1.68078897 C52.9398632,1.43675153 52.8934102,1.20881554 52.8842276,1 L54.1935542,1 C54.2032769,1.10566569 54.2313648,1.21133139 54.2767375,1.3200161 C54.3231905,1.42870082 54.3880086,1.53134749 54.4738927,1.62393076 C54.5603169,1.71852672 54.6624055,1.7975244 54.7790781,1.85991748 C54.8952107,1.91929154 55.0307886,1.95199758 55.182031,1.95199758 C55.3451566,1.95199758 55.4872164,1.91929154 55.6087505,1.85991748 C55.7313648,1.7975244 55.8318329,1.71852672 55.9133958,1.62393076 C55.9944184,1.53134749 56.0559957,1.42870082 56.0959669,1.3200161 C56.1375585,1.21133139 56.1580843,1.10566569 56.1580843,1 L57.4506662,1 C57.4306806,1.20881554 57.3777458,1.43675153 57.2924019,1.68078897 C57.2048974,1.92734226 57.0752611,2.15578142 56.903493,2.36208111 C56.7301044,2.57089665 56.5010803,2.74398712 56.2175009,2.88789373 C55.9333813,3.02928449 55.5882247,3.09972829 55.182031,3.09972829 Z M56.278538,6.87350307 L55.4720922,8.10777901 L53.5383507,11 L52,11 L52,3.99235182 L53.675009,3.99235182 L53.675009,8.34628157 L53.7057976,8.34628157 C53.8365142,8.14048506 53.9666907,7.93418537 54.0925459,7.7309047 C54.2200216,7.52712086 54.353439,7.32132434 54.4949586,7.11452149 C54.8185092,6.583174 55.1474613,6.06239308 55.4807346,5.54664386 C55.8140079,5.03139781 56.1435002,4.51313274 56.4665106,3.99235182 L58,3.99235182 L58,11 L56.3255311,11 L56.3255311,6.87350307 L56.278538,6.87350307 Z" id="Fill-16" fill="#FFFFFF" mask="url(#mask-10)"></path>
                    <path d="M65.6696402,3 C66.2153954,3 66.6924927,3.12418484 67.0984264,3.37304537 C67.5003508,3.6219059 67.7975343,3.97384475 67.98697,4.42395344 C67.9488824,4.45291354 67.8651899,4.49807166 67.7409041,4.5643363 C67.6111055,4.62765584 67.4757943,4.69392048 67.3299589,4.76263937 C67.1841235,4.8338125 67.0463065,4.90007713 66.9195149,4.96388753 C66.7922221,5.03015216 66.7085296,5.07481944 66.6709432,5.10132529 C66.4654706,4.65170745 66.1492433,4.42395344 65.7262704,4.42395344 C65.4807056,4.42395344 65.2812469,4.47402005 65.1253884,4.57758923 C64.9700311,4.67772246 64.8497544,4.81810532 64.7655608,4.99824697 C64.680866,5.17789776 64.6237346,5.3948531 64.59567,5.64911297 C64.5676055,5.90337284 64.5535732,6.17873922 64.5535732,6.47226702 C64.5535732,6.77659351 64.5706124,7.05981348 64.602185,7.32438118 C64.6357623,7.58649464 64.6948983,7.80884931 64.7800942,7.99389945 C64.8652902,8.17894958 64.9820587,8.32473179 65.133908,8.43075521 C65.2832515,8.53677863 65.4766964,8.58929949 65.7112358,8.58929949 C65.9372557,8.58929949 66.1291972,8.52892504 66.2850556,8.40964869 C66.4399118,8.29037234 66.5682069,8.13182806 66.6709432,7.93843349 C66.7085296,7.96739359 66.7922221,8.01009747 66.9195149,8.07096277 C67.0463065,8.13182806 67.1841235,8.19760185 67.3299589,8.27172008 C67.4757943,8.3458383 67.6111055,8.41210294 67.7409041,8.47051399 C67.8651899,8.53137929 67.9518893,8.57604656 68,8.60304326 C67.8110655,9.04480752 67.5143831,9.38889278 67.1084494,9.63480822 C66.7055227,9.87826941 66.2289265,10 65.6831713,10 C65.156961,10 64.7199559,9.91262885 64.3726571,9.73837739 C64.0273629,9.56363509 63.7522301,9.31968305 63.5522702,9.01044808 C63.351308,8.7031765 63.2094818,8.33013113 63.1257893,7.89622046 C63.0415957,7.46476404 63,6.98324101 63,6.45901409 C63,5.9509852 63.049113,5.48516934 63.1458354,5.06156651 C63.2445625,4.63796368 63.3989175,4.27326274 63.6083993,3.96893626 C63.8193846,3.66460977 64.0920116,3.42605708 64.4292874,3.25671412 C64.7655608,3.08442606 65.1790117,3 65.6696402,3" id="Fill-17" fill="#FFFFFF" mask="url(#mask-10)"></path>
                    <path d="M72.4968492,6.99325559 L71.4173534,6.99325559 C71.1168202,6.99325559 70.8817256,7.0650555 70.7144935,7.20816355 C70.5448376,7.3512716 70.4609792,7.56076999 70.4609792,7.83911761 C70.4609792,8.05107489 70.5365972,8.23401714 70.6863791,8.39335394 C70.8371304,8.54974006 71.0853127,8.62940846 71.4304411,8.62940846 C71.7232186,8.62940846 71.9738245,8.55219896 72.183713,8.39827174 C72.3921474,8.24729521 72.4968492,8.00091331 72.4968492,7.65863426 L72.4968492,6.99325559 Z M72.4968492,9.93115077 L72.4968492,9.40347056 L72.4425594,9.37691443 C72.2772661,9.59969088 72.0605914,9.75902768 71.7857489,9.85394127 C71.5147843,9.95229732 71.2346098,10 70.9520116,10 C70.2884149,10 69.7973825,9.81164817 69.4779447,9.4324856 C69.1594765,9.05332303 69,8.55514964 69,7.93452297 C69,7.63994661 69.0441105,7.36454967 69.1357247,7.1098075 C69.2273388,6.85555712 69.3683955,6.63523957 69.5588948,6.44442883 C69.7498788,6.256077 69.992729,6.10510046 70.2835676,5.99346635 C70.5758604,5.88232401 70.9209889,5.82921175 71.3208919,5.82921175 L72.4968492,5.82921175 L72.4968492,5.2031755 C72.4968492,4.97302234 72.4183228,4.77631024 72.2646631,4.61500632 C72.1100339,4.45321062 71.854096,4.37354222 71.4983034,4.37354222 C71.2535143,4.37354222 71.025206,4.41583532 70.816287,4.50337221 C70.6078526,4.59090909 70.4430441,4.75270479 70.3257392,4.98334973 C70.2884149,4.96466208 70.2152206,4.91991007 70.1051866,4.85106084 C69.9956374,4.78171983 69.8812409,4.70991991 69.7581192,4.63615287 C69.6354823,4.56189406 69.5196316,4.49009414 69.4158992,4.42124491 C69.3107126,4.35239567 69.2404266,4.30174231 69.203587,4.27518617 C69.4134755,3.83258395 69.7237033,3.50899255 70.1342705,3.30490375 C70.5448376,3.10081495 71.007271,3 71.5273873,3 C71.8826951,3 72.2094038,3.03442462 72.509937,3.10327385 C72.8085313,3.17212309 73.0698013,3.29162568 73.2888997,3.45883097 C73.5109064,3.62308557 73.6834707,3.84340312 73.8114397,4.11634115 C73.9374697,4.38927919 74,4.72909934 74,5.13481804 L74,9.93115077 L72.4968492,9.93115077 Z" id="Fill-18" fill="#FFFFFF" mask="url(#mask-10)"></path>
                    <path d="M75,8.85614525 C75.2715472,8.74518156 75.4958463,8.6347067 75.6661475,8.51885475 C75.8369678,8.40300279 75.9688474,8.24706704 76.0607477,8.04958101 C76.1536864,7.85209497 76.2149533,7.59888268 76.2435099,7.28554469 C76.2736241,6.97416201 76.2876428,6.56843575 76.2876428,6.07325419 L76.2876428,3 L81,3 L81,9.82108939 L79.3894081,9.82108939 L79.3894081,4.33596369 L77.7658359,4.33596369 L77.7658359,5.94909218 C77.7658359,6.6476257 77.7263759,7.23812849 77.6490135,7.72011173 C77.5700935,8.2025838 77.4382139,8.60048883 77.2533749,8.91138268 C77.0685358,9.22276536 76.8260644,9.46522346 76.5233645,9.63386872 C76.2185877,9.8049581 75.8426791,9.92618715 75.3946002,10 L75,8.85614525 Z" id="Fill-19" fill="#FFFFFF" mask="url(#mask-10)"></path>
                    <path d="M86.0421888,4.40224437 C85.8039797,4.40224437 85.5875825,4.45201087 85.3924232,4.55203178 C85.2007079,4.65498014 85.0583565,4.80964662 84.9716828,5.02042239 C84.897063,5.18582282 84.8448292,5.4044051 84.8201473,5.67275389 C84.7914474,5.9435422 84.7793935,6.25385098 84.7793935,6.60124068 C84.7793935,6.86714993 84.7857075,7.11939778 84.8040754,7.35896006 C84.8201473,7.59803443 84.8666412,7.80344323 84.9406869,7.97713808 C85.1226442,8.3899073 85.4756529,8.59531609 85.992825,8.59531609 C86.2402181,8.59531609 86.4663733,8.54262215 86.6707165,8.43772217 C86.8779298,8.33233429 87.0231512,8.12448596 87.1092509,7.81124974 C87.1505788,7.68536976 87.1804267,7.49557399 87.1964986,7.2482052 C87.2148665,7.00132432 87.2211805,6.72224158 87.2211805,6.40949327 C87.2211805,6.13577751 87.2119966,5.88060222 87.1901846,5.64640691 C87.1689467,5.41221161 87.1253229,5.21753677 87.0598871,5.06238238 C86.8779298,4.62033875 86.536975,4.40224437 86.0421888,4.40224437 M86.0731847,3 C86.7631302,3 87.3078542,3.11563393 87.7067827,3.34982923 C88.1062853,3.58402453 88.4099302,3.87335331 88.6131254,4.22318255 C88.7658089,4.47835784 88.8679805,4.81794103 88.9207883,5.23363769 C88.9724481,5.65177389 89,6.08015613 89,6.51976023 C89,6.88520248 88.9724481,7.27211264 88.9207883,7.67463581 C88.8679805,8.07715899 88.7807328,8.40356869 88.6607672,8.65044957 C88.5419497,8.90855231 88.3881182,9.12127971 88.1992729,9.29009549 C88.0104276,9.4608629 87.7969004,9.59747682 87.5523773,9.70286471 C87.3107242,9.8082526 87.0478332,9.88436607 86.7694442,9.9292535 C86.4876112,9.97658047 86.2029083,10 85.9118913,10 C85.3275615,10 84.8413852,9.90827351 84.4481967,9.72384471 C84.0521381,9.53990381 83.7490673,9.297902 83.532096,8.99539974 C83.3375108,8.72949049 83.2014733,8.38502823 83.1205396,7.96396459 C83.0407539,7.54290095 83,7.06426431 83,6.53293371 C83,6.12016449 83.0246819,5.72008085 83.0711757,5.33073116 C83.1205396,4.94138147 83.2043433,4.62570572 83.3220128,4.38907089 C83.53841,3.9572733 83.8730508,3.61817802 84.3247871,3.37080923 C84.7793935,3.12344044 85.3608533,3 86.0731847,3" id="Fill-20" fill="#FFFFFF" mask="url(#mask-10)"></path>
                    <polygon id="Fill-21" fill="#FFFFFF" mask="url(#mask-10)" points="93.4932439 10 93.4932439 7.07338398 91.5067561 7.07338398 91.5067561 10 90 10 90 3 91.5067561 3 91.5067561 5.84284076 93.4932439 5.84284076 93.4932439 3 95 3 95 10"></polygon>
                </g>
                <g id="Group-3" transform="translate(113.000000, 74.000000)">
                    <mask id="mask-12" fill="white">
                        <use xlink:href="#path-11"></use>
                    </mask>
                    <g id="Clip-2"></g>
                    <path d="M0.311561905,5.28626316 L6.80470476,18.2915263 C8.01365714,20.7125789 11.9265143,20.5225789 13.5812286,17.9631053 L21.3896571,5.88836842 C22.8228,3.67257895 21.5509905,1.12573684 18.9267048,0.955210526 L4.62513333,0.0246842105 C1.59384762,-0.172684211 -0.897390476,2.86521053 0.311561905,5.28626316" id="Fill-1" fill="#A23F91" mask="url(#mask-12)"></path>
                </g>
                <g id="Group-6" transform="translate(130.000000, 62.000000)">
                    <mask id="mask-14" fill="white">
                        <use xlink:href="#path-13"></use>
                    </mask>
                    <g id="Clip-5"></g>
                    <path d="M21.4349581,14.462359 L15.0928186,1.7905641 C13.9119814,-0.568410256 10.0901209,-0.383794872 8.47337674,2.1105641 L0.847051163,13.8751795 C-0.553274419,16.0346667 0.689469767,18.5162051 3.25272558,18.682359 L17.2211907,19.5890256 C20.182493,19.7813333 22.6152837,16.8208205 21.4349581,14.462359" id="Fill-4" fill="#A23F91" mask="url(#mask-14)"></path>
                </g>
                <path d="M41.3987584,1.22216456 C41.0765345,-0.257371713 39.0437263,-0.446976151 38.4531551,0.947082708 L32.8271873,14.2214655 C32.4697363,15.0643246 31.4647292,15.4165952 30.6591693,14.9809194 L20.7608852,9.62692522 C19.7646848,9.08764046 18.5457251,9.76213494 18.4737169,10.8925089 L17.7551886,22.0651836 C17.6966495,22.9784968 16.8641514,23.6431484 15.960163,23.4980958 L1.80406771,21.2254328 C0.308990091,20.985578 -0.610021584,22.8090961 0.472174238,23.8674618 L15.7980149,38.864862 C16.2880854,39.3445716 17.0351062,39.4455904 17.6350022,39.1140416 L23.699754,35.7581467 L45.1991359,23.8622814 C45.7990319,23.5302146 46.1103769,22.8438051 45.9642882,22.173455 L41.3987584,1.22216456 Z" id="Fill-1" fill="#D61D22"></path>
            </g>
        </g>
    </g>
</svg>