<?xml version="1.0" encoding="UTF-8"?>
<svg width="24px" height="16px" viewBox="0 0 24 16" version="1.1" xmlns="http://www.w3.org/2000/svg" xmlns:xlink="http://www.w3.org/1999/xlink">
    <!-- Generator: Sketch 50.2 (55047) - http://www.bohemiancoding.com/sketch -->
    <title>ICON/ic_computer_24px</title>
    <desc>Created with Sketch.</desc>
    <defs>
        <path d="M20,14 C21.1,14 21.99,13.1 21.99,12 L22,2 C22,0.9 21.1,0 20,0 L4,0 C2.9,0 2,0.9 2,2 L2,12 C2,13.1 2.9,14 4,14 L0,14 L0,16 L24,16 L24,14 L20,14 Z M4,2 L20,2 L20,12 L4,12 L4,2 Z" id="path-1"></path>
    </defs>
    <g id="Design" stroke="none" stroke-width="1" fill="none" fill-rule="evenodd">
        <g id="Desktop-index-Copy-9" transform="translate(-1191.000000, -73.000000)">
            <g id="ICON/ic_computer_24px" transform="translate(1191.000000, 69.000000)">
                <polygon id="Shape" points="0 0 24 0 24 24 0 24"></polygon>
                <g id="COLOR" stroke-width="1" fill-rule="evenodd" transform="translate(0.000000, 4.000000)">
                    <mask id="mask-2" fill="white">
                        <use xlink:href="#path-1"></use>
                    </mask>
                    <use id="Mask" fill="#000000" fill-rule="nonzero" xlink:href="#path-1"></use>
                    <g id="BG/1-w" mask="url(#mask-2)" fill="#FFFFFF">
                        <g transform="translate(-12.000000, -16.000000)" id="BG">
                            <rect x="0" y="0" width="48" height="48"></rect>
                        </g>
                    </g>
                </g>
            </g>
        </g>
    </g>
</svg>