<?xml version="1.0" encoding="UTF-8"?>
<svg width="20px" height="20px" viewBox="0 0 20 20" version="1.1" xmlns="http://www.w3.org/2000/svg" xmlns:xlink="http://www.w3.org/1999/xlink">
    <!-- Generator: Sketch 50.2 (55047) - http://www.bohemiancoding.com/sketch -->
    <title>icon telefon</title>
    <desc>Created with Sketch.</desc>
    <defs></defs>
    <g id="Design" stroke="none" stroke-width="1" fill="none" fill-rule="evenodd">
        <g id="Desktop-index-Copy-9" transform="translate(-956.000000, -72.000000)" fill="#D93796" fill-rule="nonzero">
            <g id="telefon" transform="translate(933.000000, 58.000000)">
                <g id="icon-telefon" transform="translate(23.000000, 14.000000)">
                    <path d="M20,15.5974843 C20,15.4716981 19.625,15.2201258 18.875,14.8427673 C18.75,14.7169811 18.5,14.591195 18.125,14.4654088 C17.75,14.3396226 17.5,14.0880503 17.25,13.9622642 C17,13.836478 16.75,13.7106918 16.5,13.4591195 C16.5,13.4591195 16.375,13.3333333 16.125,13.2075472 C15.875,13.081761 15.75,12.9559748 15.625,12.9559748 C15.5,12.8301887 15.375,12.8301887 15.25,12.8301887 C15,12.8301887 14.875,12.9559748 14.5,13.2075472 C14.25,13.4591195 14,13.836478 13.75,14.0880503 C13.5,14.4654088 13.25,14.7169811 13,14.9685535 C12.75,15.2201258 12.5,15.3459119 12.375,15.3459119 C12.25,15.3459119 12.125,15.3459119 12,15.2201258 C11.875,15.2201258 11.75,15.0943396 11.75,15.0943396 C11.625,15.0943396 11.625,14.9685535 11.375,14.8427673 C11.25,14.7169811 11.125,14.7169811 11.125,14.7169811 C9.875,13.9622642 8.75,13.2075472 7.75,12.2012579 C6.875,11.3207547 6,10.1886792 5.25,8.80503145 C5.25,8.80503145 5.125,8.67924528 5.125,8.55345912 C5,8.55345912 4.875,8.42767296 4.875,8.42767296 C4.875,8.30188679 4.75,8.30188679 4.75,8.17610063 C4.75,8.05031447 4.625,7.9245283 4.625,7.79874214 C4.625,7.67295597 4.75,7.42138365 5,7.16981132 C5.375,6.79245283 5.625,6.5408805 6,6.28930818 C6.25,6.16352201 6.625,5.78616352 6.875,5.53459119 C7.125,5.28301887 7.25,5.03144654 7.25,4.90566038 C7.25,4.77987421 7.25,4.65408805 7.125,4.52830189 C7.125,4.27672956 7,4.1509434 6.875,3.89937107 C6.75,3.77358491 6.625,3.64779874 6.625,3.52201258 C6.5,3.39622642 6.375,3.01886792 6.125,2.7672956 C6,2.51572327 5.875,2.26415094 5.625,1.88679245 C5.5,1.50943396 5.375,1.25786164 5.25,1.13207547 C4.875,0.503144654 4.625,0.125786164 4.5,0 L4.25,0 C4,0 3.625,0 3.25,0.125786164 C2.75,0.251572327 2.5,0.377358491 2.25,0.503144654 C1.75,0.628930818 1.25,1.25786164 0.75,2.13836478 C0.25,3.14465409 0,4.02515723 0,4.90566038 L0,5.66037736 C0,5.91194969 0.125,6.16352201 0.125,6.5408805 C0.25,6.79245283 0.25,7.04402516 0.375,7.16981132 C0.375,7.29559748 0.5,7.54716981 0.625,7.9245283 C0.75,8.30188679 0.875,8.55345912 0.875,8.67924528 C1.25,9.55974843 1.625,10.4402516 2,11.1949686 C2.75,12.4528302 3.75,13.7106918 5,14.9685535 C6.25,16.2264151 7.5,17.3584906 8.75,17.9874214 C9.5,18.490566 10.25,18.8679245 11.25,19.1194969 C11.375,19.1194969 11.625,19.245283 12,19.3710692 C12.375,19.4968553 12.625,19.6226415 12.75,19.6226415 C12.875,19.6226415 13.125,19.7484277 13.375,19.8742138 C13.625,20 14,20 14.25,20 L15,20 C15.875,20 16.75,19.7484277 17.625,19.245283 C18.625,18.7421384 19.125,18.2389937 19.375,17.7358491 C19.5,17.4842767 19.625,17.2327044 19.625,16.7295597 C19.75,16.3522013 19.75,15.9748428 19.75,15.7232704 C20,15.7232704 20,15.7232704 20,15.5974843 Z" id="Shape"></path>
                </g>
            </g>
        </g>
    </g>
</svg>